<svg width="25" height="26" viewBox="0 0 25 26" fill="none" xmlns="http://www.w3.org/2000/svg">
<path d="M20.0807 5.06258L20.1328 5.22898L20.7078 7.22788C20.7599 7.40908 20.7445 7.60298 20.6644 7.77372C20.5844 7.94446 20.4451 8.08047 20.2724 8.15661L20.1724 8.19301L8.99841 11.391H20.6234C20.8123 11.3914 20.9947 11.46 21.1368 11.5843C21.279 11.7086 21.3711 11.8801 21.3963 12.067L21.4036 12.171V21.0101C21.4037 21.7384 21.1254 22.4393 20.6256 22.9698C20.1258 23.5003 19.4421 23.8204 18.714 23.8649L18.539 23.8701H5.51925C4.78978 23.8701 4.08778 23.5923 3.55644 23.0933C3.02509 22.5943 2.70444 21.9117 2.65987 21.1848L2.65466 21.009V12.2813L2.11091 10.3874C1.90995 9.68731 1.98408 8.93702 2.31818 8.2896C2.65228 7.64218 3.22118 7.14641 3.90883 6.9034L4.0755 6.84932L16.5901 3.26648C17.2913 3.06584 18.0428 3.13986 18.6912 3.47342C19.3397 3.80699 19.8363 4.37498 20.0797 5.06154L20.0807 5.06258ZM19.8411 12.9511H4.21716V21.0101C4.21716 21.6382 4.66404 22.1624 5.25675 22.2831L5.38591 22.3039L5.51925 22.3101H18.5401C18.8623 22.31 19.1729 22.1906 19.4121 21.9751C19.6513 21.7596 19.8019 21.4632 19.8349 21.1432L19.8411 21.0101V12.9511ZM6.063 7.90389L4.50466 8.35109C4.19516 8.43975 3.92954 8.63977 3.7591 8.91251C3.58865 9.18525 3.52547 9.51137 3.58175 9.8279L3.613 9.9579L3.97133 11.207L4.27862 11.1186L6.063 7.90493V7.90389ZM11.0172 6.48635L8.18695 7.29652L6.40154 10.5101L9.23279 9.70102L11.0172 6.48635ZM15.9734 5.06674L13.1422 5.87795L11.3578 9.09158L14.187 8.28245L15.9734 5.06674ZM17.8974 4.82442L16.313 7.67404L18.989 6.90756L18.6307 5.65955C18.578 5.47484 18.4848 5.30413 18.358 5.15971C18.2312 5.0153 18.0739 4.90078 17.8974 4.82442Z" fill="white"/>
<path d="M14.7473 18.2096L10.7706 20.5133C10.4331 20.7086 10 20.4721 10 20.0784V15.471C10 15.0779 10.4325 14.8408 10.7706 15.0367L14.7473 17.3404C14.824 17.3842 14.8879 17.4474 14.9322 17.5237C14.9766 17.6001 15 17.6867 15 17.775C15 17.8633 14.9766 17.9499 14.9322 18.0263C14.8879 18.1026 14.824 18.1658 14.7473 18.2096Z" fill="white"/>
</svg>
