<svg width="20" height="19" viewBox="0 0 20 19" fill="none" xmlns="http://www.w3.org/2000/svg">
    <g clip-path="url(#clip0_101_404)">
    <path d="M10.1549 1.04184C5.48327 1.04184 1.69673 4.82838 1.69673 9.50001C1.69673 14.1716 5.48327 17.9582 10.1549 17.9582C14.8265 17.9582 18.6131 14.1716 18.6131 9.50001C18.6036 4.83234 14.8226 1.05134 10.1557 1.04184H10.1549ZM10.1549 18.6936C5.07715 18.6936 0.961273 14.5778 0.961273 9.50001C0.961273 4.42226 5.07715 0.306381 10.1549 0.306381C15.2326 0.306381 19.3485 4.42226 19.3485 9.50001V9.51188C19.3485 14.5825 15.2382 18.6928 10.1676 18.6928H10.1549H10.1557L10.1549 18.6936Z"/>
    <path d="M10.1549 19C4.90853 19 0.654907 14.7464 0.654907 9.5C0.654907 4.25363 4.90853 0 10.1549 0C15.4013 0 19.6549 4.25363 19.6549 9.5C19.628 14.7361 15.391 18.9731 10.1573 19H10.1549ZM10.1549 0.61275C5.24657 0.61275 1.26766 4.59167 1.26766 9.5C1.26766 14.4083 5.24657 18.3873 10.1549 18.3873C15.0632 18.3873 19.0422 14.4083 19.0422 9.5C19.039 4.59325 15.0617 0.616708 10.1557 0.61275H10.1549ZM10.1549 18.3255C5.31466 18.3255 1.39037 14.4012 1.39037 9.56096C1.39037 4.72071 5.31466 0.796417 10.1549 0.796417C14.9952 0.796417 18.9194 4.72071 18.9194 9.56096C18.9194 14.4012 14.9952 18.3255 10.1549 18.3255ZM10.1549 1.34821C5.6527 1.34821 2.00312 4.99779 2.00312 9.5C2.00312 14.0022 5.6527 17.6518 10.1549 17.6518C14.6571 17.6518 18.3067 14.0022 18.3067 9.5V9.49604C18.3067 4.99621 14.6587 1.34821 10.1589 1.34821H10.1549Z"/>
    <path d="M14.9968 11.2773V11.3058C14.9968 12.5824 14.4896 13.8067 13.587 14.7093C12.6843 15.612 11.46 16.1191 10.1834 16.1191H10.1533H10.1549H10.1264C8.84985 16.1191 7.62556 15.612 6.72288 14.7093C5.82021 13.8067 5.31309 12.5824 5.31309 11.3058V11.2757V11.2773H14.9968ZM8.31588 7.84542V7.85255C8.31588 8.76296 7.57805 9.5008 6.66763 9.5008H6.6605C6.33326 9.5008 6.01336 9.40376 5.74127 9.22195C5.46917 9.04014 5.2571 8.78173 5.13187 8.4794C5.00664 8.17706 4.97387 7.84438 5.03771 7.52342C5.10156 7.20246 5.25914 6.90765 5.49054 6.67625C5.72194 6.44485 6.01675 6.28727 6.33771 6.22342C6.65867 6.15958 6.99135 6.19235 7.29369 6.31758C7.59602 6.44281 7.85443 6.65488 8.03624 6.92698C8.21805 7.19907 8.31509 7.51897 8.31509 7.84622L8.31588 7.84542ZM15.3649 7.84542C15.3649 8.28425 15.1906 8.7051 14.8803 9.01539C14.57 9.32568 14.1491 9.50001 13.7103 9.50001C13.2715 9.50001 12.8506 9.32568 12.5403 9.01539C12.23 8.7051 12.0557 8.28425 12.0557 7.84542V7.8383C12.0557 6.92788 12.7935 6.19005 13.704 6.19005H13.7111C14.147 6.19855 14.5627 6.37538 14.8711 6.68351C15.1795 6.99164 15.3568 7.40717 15.3657 7.84305V7.84463L15.3649 7.84542Z"/>
    </g>
    <defs>
    <clipPath id="clip0_101_404">
    <rect width="19" height="19" fill="white" transform="translate(0.654907)"/>
    </clipPath>
    </defs>
</svg>
