<svg width="28" height="28" viewBox="0 0 28 28" fill="none" xmlns="http://www.w3.org/2000/svg">
<path d="M4.66669 7.00001C4.66669 6.69059 4.7896 6.39384 5.0084 6.17505C5.22719 5.95626 5.52393 5.83334 5.83335 5.83334H22.1667C22.4761 5.83334 22.7729 5.95626 22.9916 6.17505C23.2104 6.39384 23.3334 6.69059 23.3334 7.00001C23.3334 7.30943 23.2104 7.60618 22.9916 7.82497C22.7729 8.04376 22.4761 8.16668 22.1667 8.16668H5.83335C5.52393 8.16668 5.22719 8.04376 5.0084 7.82497C4.7896 7.60618 4.66669 7.30943 4.66669 7.00001ZM4.66669 21C4.66669 20.6906 4.7896 20.3938 5.0084 20.1751C5.22719 19.9563 5.52393 19.8333 5.83335 19.8333H22.1667C22.4761 19.8333 22.7729 19.9563 22.9916 20.1751C23.2104 20.3938 23.3334 20.6906 23.3334 21C23.3334 21.3094 23.2104 21.6062 22.9916 21.825C22.7729 22.0438 22.4761 22.1667 22.1667 22.1667H5.83335C5.52393 22.1667 5.22719 22.0438 5.0084 21.825C4.7896 21.6062 4.66669 21.3094 4.66669 21ZM5.83335 12.8333C5.52393 12.8333 5.22719 12.9563 5.0084 13.1751C4.7896 13.3938 4.66669 13.6906 4.66669 14C4.66669 14.3094 4.7896 14.6062 5.0084 14.825C5.22719 15.0438 5.52393 15.1667 5.83335 15.1667H15.1667C15.4761 15.1667 15.7729 15.0438 15.9916 14.825C16.2104 14.6062 16.3334 14.3094 16.3334 14C16.3334 13.6906 16.2104 13.3938 15.9916 13.1751C15.7729 12.9563 15.4761 12.8333 15.1667 12.8333H5.83335Z" fill="white"/>
</svg>
