<svg width="26" height="26" viewBox="0 0 26 26" class="currentColor" xmlns="http://www.w3.org/2000/svg">
<path d="M22.3478 17.3321C22.2635 17.2306 22.1807 17.129 22.0995 17.031C20.9823 15.6797 20.3064 14.8642 20.3064 11.0388C20.3064 9.05836 19.8326 7.43336 18.8987 6.21461C18.2101 5.31426 17.2793 4.63125 16.0524 4.12648C16.0367 4.1177 16.0226 4.10618 16.0108 4.09246C15.5695 2.61473 14.3619 1.625 13 1.625C11.638 1.625 10.431 2.61473 9.98968 4.09094C9.9779 4.10415 9.964 4.11531 9.94854 4.12395C7.0855 5.30258 5.69409 7.56387 5.69409 11.0373C5.69409 14.8642 5.01921 15.6797 3.901 17.0295C3.81975 17.1275 3.73698 17.227 3.65268 17.3306C3.43493 17.5932 3.29697 17.9127 3.25512 18.2513C3.21328 18.5898 3.2693 18.9333 3.41655 19.241C3.72987 19.9012 4.39764 20.311 5.15987 20.311H20.8457C21.6044 20.311 22.2676 19.9017 22.5819 19.2446C22.7298 18.9368 22.7863 18.593 22.7449 18.2541C22.7034 17.9151 22.5656 17.5952 22.3478 17.3321ZM13 24.375C13.7338 24.3744 14.4538 24.1752 15.0835 23.7986C15.7133 23.4219 16.2294 22.8818 16.577 22.2356C16.5934 22.2046 16.6015 22.1699 16.6005 22.1349C16.5995 22.0999 16.5895 22.0657 16.5714 22.0357C16.5533 22.0057 16.5278 21.9809 16.4972 21.9637C16.4667 21.9465 16.4323 21.9375 16.3973 21.9375H9.60374C9.56866 21.9374 9.53415 21.9463 9.50357 21.9635C9.47298 21.9807 9.44737 22.0055 9.42921 22.0355C9.41106 22.0655 9.40099 22.0997 9.39998 22.1348C9.39898 22.1699 9.40707 22.2046 9.42347 22.2356C9.77108 22.8817 10.2871 23.4218 10.9167 23.7984C11.5464 24.1751 12.2663 24.3743 13 24.375Z" fill="white"/>
</svg>
