<svg width="19" height="19" viewBox="0 0 19 19" fill="none" xmlns="http://www.w3.org/2000/svg">
<g filter="url(#filter0_d_101_378)">
<path d="M6.69764 4.30496V13.1444C6.134 12.6323 5.38541 12.3198 4.56525 12.3198C2.81628 12.3198 1.39337 13.7405 1.39337 15.4867C1.39337 17.2328 2.81628 18.6535 4.56525 18.6535C6.31205 18.6535 7.73333 17.2364 7.73699 15.4933H7.73712V9.17691L16.846 6.44396V11.0139C16.2824 10.5019 15.5338 10.1893 14.7136 10.1893C12.9647 10.1893 11.5418 11.61 11.5418 13.3562C11.5418 15.1024 12.9647 16.523 14.7136 16.523C16.4567 16.523 17.8756 15.1119 17.8853 13.3739H17.8855V0.948212L6.69764 4.30496Z" fill="#F59762"/>
</g>
<defs>
<filter id="filter0_d_101_378" x="-2.60663" y="0.948212" width="24.4922" height="25.7053" filterUnits="userSpaceOnUse" color-interpolation-filters="sRGB">
<feFlood flood-opacity="0" result="BackgroundImageFix"/>
<feColorMatrix in="SourceAlpha" type="matrix" values="0 0 0 0 0 0 0 0 0 0 0 0 0 0 0 0 0 0 127 0" result="hardAlpha"/>
<feOffset dy="4"/>
<feGaussianBlur stdDeviation="2"/>
<feComposite in2="hardAlpha" operator="out"/>
<feColorMatrix type="matrix" values="0 0 0 0 0 0 0 0 0 0 0 0 0 0 0 0 0 0 0.25 0"/>
<feBlend mode="normal" in2="BackgroundImageFix" result="effect1_dropShadow_101_378"/>
<feBlend mode="normal" in="SourceGraphic" in2="effect1_dropShadow_101_378" result="shape"/>
</filter>
</defs>
</svg>
